<svg width="76" height="76" viewBox="0 0 76 76" fill="none" xmlns="http://www.w3.org/2000/svg">
<rect width="76" height="76" fill="#222222"/>
<path d="M39.8462 27.8462C39.8462 26.825 39.0212 26 38 26C36.9788 26 36.1538 26.825 36.1538 27.8462V36.1538H27.8462C26.825 36.1538 26 36.9788 26 38C26 39.0212 26.825 39.8462 27.8462 39.8462H36.1538V48.1538C36.1538 49.175 36.9788 50 38 50C39.0212 50 39.8462 49.175 39.8462 48.1538V39.8462H48.1538C49.175 39.8462 50 39.0212 50 38C50 36.9788 49.175 36.1538 48.1538 36.1538H39.8462V27.8462Z" fill="white"/>
</svg>
