<svg width="25" height="25" viewBox="0 0 25 25" fill="none" xmlns="http://www.w3.org/2000/svg">
<path fill-rule="evenodd" clip-rule="evenodd" d="M17.5033 3.00868C18.9599 3.00868 20.3571 3.62475 21.3887 4.72191C21.8996 5.2668 22.3048 5.91373 22.5812 6.62575C22.8577 7.33777 23 8.10093 23 8.87165C23 9.64236 22.8577 10.4055 22.5812 11.1175C22.3048 11.8296 21.8996 12.4765 21.3887 13.0214L12.292 22.8703C12.2541 22.9114 12.2089 22.944 12.1591 22.9663C12.1092 22.9885 12.0558 23 12.0017 23C11.9477 23 11.8943 22.9885 11.8444 22.9663C11.7946 22.944 11.7494 22.9114 11.7115 22.8703L2.61271 13.0192C1.58087 11.9193 1.00077 10.4272 1 8.87092C0.999238 7.31467 1.57788 5.82184 2.60864 4.72083C3.63939 3.61982 5.03783 3.00082 6.4963 3C7.95477 2.99919 9.35382 3.61662 10.3857 4.71648L12.0017 6.32139L13.6178 4.72191C14.6495 3.62475 16.0467 3.00868 17.5033 3.00868Z" fill="#222222"/>
</svg>
