<svg width="30" height="30" viewBox="0 0 30 30" fill="none" xmlns="http://www.w3.org/2000/svg">
<rect width="30" height="30" fill="white"/>
<path d="M15.4496 15.0033L23.9078 6.53528C23.9666 6.47593 23.9996 6.39579 23.9996 6.31227C23.9996 6.22876 23.9666 6.14862 23.9078 6.08927C23.8476 6.03186 23.7676 5.99989 23.6844 6C23.6012 6.00011 23.5213 6.03231 23.4612 6.08988L15.0043 14.5573L6.54605 6.08927C6.48581 6.03224 6.40601 6.00045 6.32305 6.00045C6.24009 6.00045 6.16029 6.03224 6.10005 6.08927C6.04133 6.14852 6.00839 6.22856 6.00839 6.31197C6.00839 6.39538 6.04133 6.47542 6.10005 6.53467L14.5589 15.0033L6.10066 23.4713C6.06962 23.5002 6.04472 23.535 6.02743 23.5736C6.01014 23.6123 6.00083 23.6541 6.00005 23.6964C5.99927 23.7388 6.00704 23.7809 6.02289 23.8202C6.03874 23.8594 6.06235 23.8951 6.09231 23.9251C6.12226 23.955 6.15795 23.9786 6.19724 23.9945C6.23652 24.0103 6.2786 24.0181 6.32096 24.0173C6.36331 24.0166 6.40508 24.0072 6.44375 23.99C6.48243 23.9727 6.51722 23.9478 6.54605 23.9167L15.0043 15.4493L23.4618 23.9173C23.4911 23.9466 23.5258 23.9699 23.564 23.9857C23.6023 24.0016 23.6432 24.0098 23.6846 24.0098C23.726 24.0098 23.767 24.0017 23.8052 23.9859C23.8435 23.9701 23.8783 23.9469 23.9075 23.9177C23.9368 23.8884 23.9601 23.8537 23.9759 23.8155C23.9918 23.7772 24 23.7363 24 23.6949C24 23.6535 23.9919 23.6125 23.9761 23.5742C23.9603 23.536 23.9371 23.5012 23.9078 23.4719L15.4496 15.0033Z" fill="#222222"/>
</svg>
