<svg width="24" height="24" viewBox="0 0 24 24" fill="none" xmlns="http://www.w3.org/2000/svg">
<g clip-path="url(#clip0_857_1019)">
<path d="M24 13.073C24 6.40365 18.629 1 12 1C5.37097 1 0 6.40365 0 13.073C0 19.0988 4.38823 24.0935 10.125 25V16.563H7.07661V13.073H10.125V10.4131C10.125 7.38751 11.9153 5.71627 14.6574 5.71627C15.9706 5.71627 17.3439 5.95189 17.3439 5.95189V8.92146H15.8303C14.34 8.92146 13.875 9.85225 13.875 10.8069V13.073H17.2031L16.6708 16.563H13.875V25C19.6118 24.0935 24 19.0988 24 13.073Z" fill="#222222"/>
</g>
<defs>
<clipPath id="clip0_857_1019">
<rect width="24" height="24" fill="white"/>
</clipPath>
</defs>
</svg>
