<svg width="24" height="27" viewBox="0 0 24 27" fill="none" xmlns="http://www.w3.org/2000/svg">
<g clip-path="url(#clip0_857_1017)">
<path d="M12.0055 6.75728C8.59833 6.75728 5.85011 9.46255 5.85011 12.8165C5.85011 16.1704 8.59833 18.8756 12.0055 18.8756C15.4126 18.8756 18.1608 16.1704 18.1608 12.8165C18.1608 9.46255 15.4126 6.75728 12.0055 6.75728ZM12.0055 16.7557C9.80368 16.7557 8.00368 14.9891 8.00368 12.8165C8.00368 10.6438 9.79833 8.8772 12.0055 8.8772C14.2126 8.8772 16.0073 10.6438 16.0073 12.8165C16.0073 14.9891 14.2073 16.7557 12.0055 16.7557ZM19.8483 6.50942C19.8483 7.29517 19.2055 7.92271 18.4126 7.92271C17.6144 7.92271 16.9769 7.28989 16.9769 6.50942C16.9769 5.72895 17.6198 5.09614 18.4126 5.09614C19.2055 5.09614 19.8483 5.72895 19.8483 6.50942ZM23.9251 7.9438C23.834 6.05063 23.3948 4.37368 21.9858 2.99204C20.5823 1.6104 18.8787 1.17798 16.9555 1.08306C14.9733 0.972314 9.03226 0.972314 7.05011 1.08306C5.13225 1.17271 3.42868 1.60513 2.01975 2.98677C0.610826 4.36841 0.176897 6.04536 0.0804687 7.93853C-0.0320312 9.8897 -0.0320312 15.7379 0.0804687 17.6891C0.17154 19.5823 0.610826 21.2592 2.01975 22.6409C3.42868 24.0225 5.1269 24.4549 7.05011 24.5499C9.03226 24.6606 14.9733 24.6606 16.9555 24.5499C18.8787 24.4602 20.5823 24.0278 21.9858 22.6409C23.3894 21.2592 23.8287 19.5823 23.9251 17.6891C24.0376 15.7379 24.0376 9.89497 23.9251 7.9438ZM21.3644 19.7827C20.9465 20.8163 20.1376 21.6125 19.0823 22.0292C17.5019 22.6461 13.7519 22.5038 12.0055 22.5038C10.259 22.5038 6.50368 22.6409 4.92868 22.0292C3.87868 21.6178 3.06975 20.8215 2.64654 19.7827C2.01975 18.227 2.1644 14.5356 2.1644 12.8165C2.1644 11.0973 2.02511 7.40063 2.64654 5.85024C3.0644 4.81665 3.87333 4.02036 4.92868 3.60376C6.50904 2.98677 10.259 3.12915 12.0055 3.12915C13.7519 3.12915 17.5073 2.99204 19.0823 3.60376C20.1323 4.01509 20.9412 4.81138 21.3644 5.85024C21.9912 7.40591 21.8465 11.0973 21.8465 12.8165C21.8465 14.5356 21.9912 18.2323 21.3644 19.7827Z" fill="#222222"/>
</g>
<defs>
<clipPath id="clip0_857_1017">
<rect width="24" height="27" fill="white"/>
</clipPath>
</defs>
</svg>
