<svg width="219" height="40" viewBox="0 0 219 40" fill="none" xmlns="http://www.w3.org/2000/svg">
<path d="M139.261 12.3044C136.536 12.3044 134.63 10.362 134.63 7.52327C134.63 4.6845 136.536 2.74219 139.261 2.74219C141.986 2.74219 143.893 4.6845 143.893 7.52327C143.893 10.362 141.972 12.3044 139.261 12.3044ZM139.261 3.82362C137.248 3.82362 135.946 5.26791 135.946 7.52327C135.946 9.77863 137.248 11.2229 139.261 11.2229C141.275 11.2229 142.563 9.77863 142.563 7.52327C142.563 5.26791 141.275 3.82362 139.261 3.82362Z" fill="black"/>
<path d="M151.691 9.96348V2.91992H152.886V12.1335H151.869L146.454 4.73416V12.1335H145.259V2.91992H146.589L151.691 9.96348Z" fill="black"/>
<path d="M161.104 2.91992H162.463L158.834 8.51919V12.1335H157.603V8.51919L153.96 2.91992H155.369L158.286 7.33815L161.096 2.91992H161.104Z" fill="black"/>
<path d="M167.706 7.30263L171.313 12.1264H169.805L166.937 8.3129L164.113 12.1264H162.676L166.269 7.388L162.982 2.91284H164.49L167.023 6.40617L169.556 2.91284H170.993L167.706 7.2955V7.30263Z" fill="black"/>
<path d="M136.465 21.3398C136.536 23.0189 137.71 23.8869 139.276 23.8869C140.67 23.8869 141.538 23.3035 141.538 22.2932C141.538 21.4466 140.976 21.0339 139.759 20.7991L137.91 20.4505C136.536 20.1873 135.59 19.4544 135.59 18.0244C135.59 16.4165 136.878 15.3208 138.92 15.3208C141.261 15.3208 142.605 16.5517 142.62 18.622L141.453 18.6789C141.41 17.1564 140.478 16.2955 138.934 16.2955C137.589 16.2955 136.835 16.9216 136.835 17.9461C136.835 18.8497 137.44 19.1485 138.521 19.3477L140.208 19.6679C141.908 19.9881 142.769 20.7209 142.769 22.1936C142.769 23.8869 141.289 24.8687 139.276 24.8687C136.985 24.8687 135.313 23.6237 135.313 21.4039L136.465 21.3327V21.3398Z" fill="black"/>
<path d="M150.126 22.5566C149.798 24.0009 148.717 24.8831 147.109 24.8831C145.188 24.8831 143.779 23.5954 143.779 21.6104C143.779 19.6254 145.188 18.1455 147.052 18.1455C149.108 18.1455 150.161 19.5898 150.161 21.3329V21.8167H145.01C145.067 23.0618 145.971 23.9369 147.123 23.9369C148.205 23.9369 148.838 23.4246 149.108 22.4428L150.126 22.5566ZM148.895 21.0199C148.852 19.9953 148.276 19.0633 147.045 19.0633C145.814 19.0633 145.181 19.9669 145.031 21.0199H148.895Z" fill="black"/>
<path d="M154.373 18.1384C156.266 18.1384 157.29 19.3977 157.418 20.9345L156.337 21.0057C156.23 19.8815 155.554 19.1203 154.352 19.1203C153.149 19.1203 152.31 20.0381 152.31 21.5179C152.31 22.9978 153.135 23.9156 154.352 23.9156C155.568 23.9156 156.23 23.1116 156.337 21.9875L157.418 22.0871C157.283 23.6381 156.266 24.8832 154.373 24.8832C152.481 24.8832 151.058 23.5527 151.058 21.5179C151.058 19.4831 152.417 18.1384 154.373 18.1384Z" fill="black"/>
<path d="M161.587 24.8832C159.695 24.8832 158.3 23.51 158.3 21.5179C158.3 19.5258 159.695 18.1384 161.587 18.1384C163.48 18.1384 164.903 19.5258 164.903 21.5179C164.903 23.51 163.494 24.8832 161.587 24.8832ZM161.587 23.944C162.904 23.944 163.643 22.9337 163.643 21.5179C163.643 20.1021 162.904 19.0918 161.587 19.0918C160.271 19.0918 159.56 20.0879 159.56 21.5179C159.56 22.948 160.285 23.944 161.587 23.944Z" fill="black"/>
<path d="M167.407 24.7053H166.176V18.3163H167.407V19.4547C167.72 18.6791 168.588 18.1384 169.556 18.1384C171.242 18.1384 171.925 19.2483 171.925 20.7424V24.7053H170.694V20.842C170.694 19.7748 170.175 19.0989 169.157 19.0989C168.14 19.0989 167.414 19.8602 167.414 21.027V24.6982L167.407 24.7053Z" fill="black"/>
<path d="M178.385 23.3748C178.086 24.1645 177.275 24.8831 176.066 24.8831C174.145 24.8831 173.106 23.4033 173.106 21.5179C173.106 19.6325 174.145 18.1384 176.066 18.1384C177.282 18.1384 178.093 18.8712 178.385 19.6609V15.4917H179.616V24.7053H178.385V23.3748ZM178.399 21.3258C178.399 19.9384 177.51 19.1202 176.343 19.1202C175.07 19.1202 174.358 20.0593 174.358 21.5179C174.358 22.9764 175.07 23.9155 176.343 23.9155C177.51 23.9155 178.399 23.0973 178.399 21.6957V21.3329V21.3258Z" fill="black"/>
<path d="M184.006 24.7053V15.4917H185.294V19.4404H190.651V15.4917H191.939V24.7053H190.651V20.4791H185.294V24.7053H184.006Z" fill="black"/>
<path d="M198.833 23.4458C198.833 23.7802 199.025 23.9438 199.338 23.9438C199.487 23.9438 199.722 23.9011 199.9 23.7944V24.4561C199.679 24.6766 199.409 24.8331 198.911 24.8331C198.242 24.8331 197.773 24.3351 197.694 23.5739C197.339 24.3209 196.421 24.8758 195.375 24.8758C194.116 24.8758 193.305 24.2071 193.305 23.1043C193.305 21.8877 194.358 21.3968 195.909 21.0837L197.652 20.7351V20.4861C197.652 19.611 197.132 19.0702 196.229 19.0702C195.325 19.0702 194.792 19.6109 194.6 20.358L193.504 20.2086C193.753 19.0133 194.721 18.1311 196.243 18.1311C197.872 18.1311 198.833 18.9493 198.833 20.5714V23.4387V23.4458ZM197.652 21.5462L196.2 21.8521C195.183 22.0726 194.528 22.2647 194.528 23.0331C194.528 23.5738 194.898 23.9865 195.638 23.9865C196.777 23.9865 197.652 23.1398 197.652 21.8521V21.5462Z" fill="black"/>
<path d="M202.091 24.7053H200.86V18.3163H202.091V19.4547C202.404 18.6791 203.272 18.1384 204.24 18.1384C205.926 18.1384 206.609 19.2483 206.609 20.7424V24.7053H205.378V20.842C205.378 19.7748 204.859 19.0989 203.841 19.0989C202.824 19.0989 202.098 19.8602 202.098 21.027V24.6982L202.091 24.7053Z" fill="black"/>
<path d="M213.069 23.3748C212.771 24.1645 211.96 24.8831 210.75 24.8831C208.829 24.8831 207.79 23.4033 207.79 21.5179C207.79 19.6325 208.829 18.1384 210.75 18.1384C211.967 18.1384 212.778 18.8712 213.069 19.6609V15.4917H214.3V24.7053H213.069V23.3748ZM213.084 21.3258C213.084 19.9384 212.194 19.1202 211.027 19.1202C209.754 19.1202 209.042 20.0593 209.042 21.5179C209.042 22.9764 209.754 23.9155 211.027 23.9155C212.194 23.9155 213.084 23.0973 213.084 21.6957V21.3329V21.3258Z" fill="black"/>
<path d="M137.205 37.2838H135.932V28.0703H139.318C141.623 28.0703 142.947 29.1517 142.947 30.9518C142.947 32.7518 141.631 33.8475 139.318 33.8475H137.205V37.2838ZM139.29 32.8087C140.919 32.8087 141.702 32.147 141.702 30.9518C141.702 29.7565 140.919 29.1091 139.29 29.1091H137.205V32.8087H139.29Z" fill="black"/>
<path d="M149.763 35.1352C149.435 36.5795 148.354 37.4618 146.746 37.4618C144.825 37.4618 143.416 36.174 143.416 34.189C143.416 32.204 144.825 30.7241 146.689 30.7241C148.745 30.7241 149.798 32.1684 149.798 33.9115V34.3953H144.647C144.704 35.6404 145.608 36.5155 146.76 36.5155C147.842 36.5155 148.475 36.0032 148.745 35.0214L149.763 35.1352ZM148.532 33.5985C148.489 32.574 147.913 31.6419 146.682 31.6419C145.451 31.6419 144.818 32.5455 144.668 33.5985H148.532Z" fill="black"/>
<path d="M154.928 32.1046C154.572 31.9125 154.323 31.8414 153.925 31.8414C152.993 31.8414 152.296 32.6738 152.296 33.9047V37.2841H151.065V30.8952H152.296V32.1971C152.53 31.4643 153.199 30.7173 154.131 30.7173C154.53 30.7173 154.828 30.8169 155.049 31.009L154.928 32.1046Z" fill="black"/>
<path d="M155.405 31.7701V30.895H156.393V30.1479C156.393 28.789 157.176 27.8997 158.542 27.8997C159.652 27.8997 160.271 28.3977 160.57 29.3582L159.723 29.6499C159.56 29.1519 159.19 28.7748 158.599 28.7748C157.916 28.7748 157.61 29.2586 157.61 30.0198V30.895H159.431V31.7701H157.61V37.284H156.393V31.7701H155.405Z" fill="black"/>
<path d="M164.725 30.895H165.956V37.284H164.725V36.1599C164.412 36.9212 163.587 37.4619 162.612 37.4619C160.926 37.4619 160.307 36.3662 160.307 34.8721V30.895H161.537V34.7583C161.537 35.8255 162.014 36.5156 163.032 36.5156C163.992 36.5156 164.732 35.7544 164.732 34.5733V30.9021L164.725 30.895Z" fill="black"/>
<path d="M175.219 30.7173C176.905 30.7173 177.496 31.8698 177.496 33.3212V37.2841H176.265V33.428C176.265 32.3608 175.824 31.6849 174.828 31.6849C173.91 31.6849 173.17 32.4461 173.17 33.613V37.2841H171.939V33.428C171.939 32.3608 171.498 31.6849 170.502 31.6849C169.584 31.6849 168.859 32.4461 168.859 33.613V37.2841H167.628V30.8952H168.859V32.0335C169.172 31.258 169.926 30.7173 170.915 30.7173C172.067 30.7173 172.75 31.2722 173.028 32.1046C173.369 31.3149 174.166 30.7173 175.205 30.7173H175.219Z" fill="black"/>
<path d="M185.045 35.1352C184.717 36.5795 183.636 37.4618 182.028 37.4618C180.107 37.4618 178.698 36.174 178.698 34.189C178.698 32.204 180.107 30.7241 181.971 30.7241C184.027 30.7241 185.08 32.1684 185.08 33.9115V34.3953H179.929C179.986 35.6404 180.89 36.5155 182.042 36.5155C183.124 36.5155 183.757 36.0032 184.027 35.0214L185.045 35.1352ZM183.814 33.5985C183.771 32.574 183.195 31.6419 181.964 31.6419C180.733 31.6419 180.1 32.5455 179.95 33.5985H183.814Z" fill="black"/>
<path d="M189.648 33.9187C189.719 35.5978 190.893 36.4658 192.458 36.4658C193.852 36.4658 194.72 35.8824 194.72 34.8721C194.72 34.0254 194.158 33.6128 192.942 33.378L191.092 33.0294C189.719 32.7661 188.773 32.0333 188.773 30.6033C188.773 28.9953 190.06 27.8997 192.102 27.8997C194.443 27.8997 195.788 29.1305 195.802 31.2009L194.635 31.2578C194.592 29.7353 193.66 28.8744 192.117 28.8744C190.772 28.8744 190.018 29.5005 190.018 30.525C190.018 31.4286 190.622 31.7274 191.704 31.9266L193.39 32.2468C195.09 32.5669 195.951 33.2997 195.951 34.7796C195.951 36.4729 194.471 37.4547 192.458 37.4547C190.167 37.4547 188.495 36.2096 188.495 33.9898L189.648 33.9187Z" fill="black"/>
<path d="M198.505 37.2838H197.275V28.0703H198.505V32.0332C198.819 31.2577 199.687 30.717 200.654 30.717C202.34 30.717 203.023 31.8269 203.023 33.3209V37.2838H201.793V33.4277C201.793 32.3605 201.273 31.6846 200.256 31.6846C199.238 31.6846 198.513 32.4458 198.513 33.6127V37.2838H198.505Z" fill="black"/>
<path d="M207.491 37.4547C205.599 37.4547 204.204 36.0816 204.204 34.0894C204.204 32.0973 205.599 30.71 207.491 30.71C209.384 30.71 210.807 32.0973 210.807 34.0894C210.807 36.0816 209.398 37.4547 207.491 37.4547ZM207.491 36.5156C208.808 36.5156 209.547 35.5053 209.547 34.0894C209.547 32.6736 208.808 31.6633 207.491 31.6633C206.175 31.6633 205.464 32.6594 205.464 34.0894C205.464 35.5195 206.189 36.5156 207.491 36.5156Z" fill="black"/>
<path d="M213.304 39.7387H212.073V30.8952H213.304V32.2398C213.589 31.4501 214.414 30.7173 215.631 30.7173C217.537 30.7173 218.59 32.2114 218.59 34.0968C218.59 35.9822 217.537 37.462 215.631 37.462C214.414 37.462 213.589 36.7434 213.304 35.9537V39.7387ZM213.276 34.2675C213.276 35.6691 214.179 36.4873 215.346 36.4873C216.62 36.4873 217.317 35.5482 217.317 34.0896C217.317 32.6311 216.62 31.692 215.346 31.692C214.179 31.692 213.276 32.5102 213.276 33.8976V34.2604V34.2675Z" fill="black"/>
<path d="M127.693 0.607666H34.7534V8.75399C31.4878 3.71678 25.9739 0.607666 19.3287 0.607666C8.52861 0.607666 0.695312 8.83938 0.695312 20.1731C0.695312 31.5068 8.52861 39.7386 19.3287 39.7386C25.9668 39.7386 31.4878 36.6223 34.7534 31.5922V39.7386H128.76V0.607666H127.686H127.693Z" fill="black"/>
<path d="M19.3358 35.8255C10.6488 35.8255 4.55859 29.4578 4.55859 20.1731C4.55859 10.8884 10.6488 4.52075 19.3358 4.52075C28.0229 4.52075 34.1131 10.8884 34.1131 20.1731C34.1131 29.4578 27.9731 35.8255 19.3358 35.8255ZM19.3358 8.06386C12.9184 8.06386 8.76339 12.8023 8.76339 20.1731C8.76339 27.5439 12.9184 32.2823 19.3358 32.2823C25.7533 32.2823 29.8656 27.5439 29.8656 20.1731C29.8656 12.8023 25.7604 8.06386 19.3358 8.06386Z" fill="white"/>
<path d="M59.9324 28.4689V4.52075H63.9024V35.8255H60.5229L42.5867 10.6821V35.8255H38.6167V4.52075H43.0278L59.9324 28.4689Z" fill="white"/>
<path d="M91.0947 4.52075H95.6054L83.5958 23.5526V35.8255H79.5262V23.5526L67.4739 4.52075H72.1269L81.7816 19.5257L91.0947 4.52075Z" fill="white"/>
<path d="M112.951 19.4261L124.911 35.8255H119.909L110.404 22.8553L101.041 35.8255H96.2886L108.199 19.7249L97.3202 4.52075H102.322L110.703 16.3952L119.084 4.52075H123.837L112.958 19.4261H112.951Z" fill="white"/>
</svg>
