<svg width="360" height="110" viewBox="0 0 360 110" fill="none" xmlns="http://www.w3.org/2000/svg">
<path d="M52.54 99C28.12 99 11 81.1 11 55C11 28.9 28.12 11 52.54 11C76.96 11 94.08 28.9 94.08 55C94.08 81.1 76.82 99 52.54 99ZM52.54 20.96C34.5 20.96 22.82 34.28 22.82 55C22.82 75.72 34.5 89.04 52.54 89.04C70.58 89.04 82.14 75.72 82.14 55C82.14 34.28 70.6 20.96 52.54 20.96Z" fill="black"/>
<path d="M166.66 78.32V11H177.82V99H168.32L117.9 28.32V99H106.74V11H119.14L166.66 78.32Z" fill="black"/>
<path d="M254.26 11H266.94L233.18 64.5V99H221.74V64.5L187.86 11H200.94L228.08 53.18L254.26 11Z" fill="black"/>
<path d="M315.7 52.9L349.32 99H335.26L308.54 62.54L282.22 99H268.86L302.34 53.74L271.74 11H285.8L309.36 44.38L332.92 11H346.28L315.7 52.9Z" fill="black"/>
</svg>
