<svg width="286" height="111" viewBox="0 0 286 111" fill="none" xmlns="http://www.w3.org/2000/svg">
<path d="M285.152 110.653H104.252V73.7828C97.5018 95.9228 78.3618 110.653 53.8218 110.653C23.0618 110.653 0.741821 87.5228 0.741821 55.6528C0.741821 23.7828 23.0618 0.652832 53.8218 0.652832C78.3418 0.652832 97.5118 15.3828 104.252 37.5228V0.652832H285.152V110.653Z" fill="#A0D1EF"/>
<path d="M53.8118 99.0125C29.4218 99.0125 12.3218 81.3825 12.3218 55.6525C12.3218 29.9225 29.4018 12.2925 53.8118 12.2925C78.2218 12.2925 95.3018 29.9225 95.3018 55.6525C95.3018 81.3825 78.0718 99.0125 53.8118 99.0125ZM53.8118 22.1125C35.7718 22.1125 24.1118 35.2425 24.1118 55.6525C24.1118 76.0625 35.7718 89.2025 53.8118 89.2025C71.8518 89.2025 83.3818 76.0725 83.3818 55.6525C83.3818 35.2325 71.8418 22.1125 53.8118 22.1125Z" fill="black"/>
<path d="M170.942 99.0125C169.292 96.6725 168.052 90.3425 167.372 80.1525C166.822 70.5125 162.282 64.0525 150.432 64.0525H125.932V99.0025H114.242V12.2925H149.482C171.512 12.2925 182.102 22.4825 182.102 37.8925C182.102 51.2325 173.012 58.2725 162.432 59.5025C173.042 61.5725 178.112 68.0425 178.952 78.2225C180.052 90.8825 180.472 95.8425 183.362 98.9925H170.952L170.942 99.0125ZM148.782 54.5525C163.512 54.5525 170.112 49.0425 170.112 38.3225C170.112 28.4225 163.492 22.0925 148.782 22.0925H125.932V54.5725H148.782V54.5525Z" fill="black"/>
<path d="M201.372 99.0127V12.3027H213.352V49.4627H263.172V12.3027H275.152V99.0127H263.172V59.2327H213.352V99.0127H201.372Z" fill="black"/>
</svg>
