<svg width="25" height="25" viewBox="0 0 25 25" fill="none" xmlns="http://www.w3.org/2000/svg">
<path d="M23.7523 21.5563L18.4622 16.2672C19.9955 14.4264 20.76 12.0653 20.5969 9.67513C20.4337 7.28495 19.3553 5.0497 17.586 3.43436C15.8168 1.81903 13.4928 0.947973 11.0977 1.00241C8.7026 1.05684 6.42066 2.03257 4.72661 3.72661C3.03257 5.42066 2.05684 7.7026 2.00241 10.0977C1.94797 12.4928 2.81903 14.8168 4.43436 16.586C6.0497 18.3553 8.28495 19.4337 10.6751 19.5969C13.0653 19.76 15.4264 18.9955 17.2672 17.4622L22.5563 22.7523C22.6348 22.8308 22.728 22.8931 22.8307 22.9356C22.9333 22.9781 23.0432 23 23.1543 23C23.2654 23 23.3753 22.9781 23.4779 22.9356C23.5805 22.8931 23.6738 22.8308 23.7523 22.7523C23.8308 22.6738 23.8931 22.5805 23.9356 22.4779C23.9781 22.3753 24 22.2654 24 22.1543C24 22.0432 23.9781 21.9333 23.9356 21.8307C23.8931 21.728 23.8308 21.6348 23.7523 21.5563ZM3.71383 10.321C3.71383 8.81642 4.15998 7.34565 4.99586 6.09467C5.83174 4.84368 7.01982 3.86865 8.40984 3.29289C9.79986 2.71712 11.3294 2.56647 12.805 2.86C14.2807 3.15352 15.6361 3.87803 16.7 4.94191C17.7639 6.00578 18.4884 7.36125 18.7819 8.83689C19.0755 10.3125 18.9248 11.8421 18.349 13.2321C17.7733 14.6221 16.7983 15.8102 15.5473 16.6461C14.2963 17.482 12.8255 17.9281 11.321 17.9281C9.30411 17.9259 7.37051 17.1237 5.94438 15.6976C4.51825 14.2714 3.71607 12.3378 3.71383 10.321Z" fill="#222222"/>
</svg>
