<svg width="55" height="55" viewBox="0 0 55 55" fill="none" xmlns="http://www.w3.org/2000/svg">
<!-- <rect width="55" height="55" fill="white"/> -->
<path d="M41.1267 23.06C41.1267 26.8247 39.9043 30.3023 37.8453 33.1238L48.2309 43.5156C49.2564 44.5408 49.2564 46.2058 48.2309 47.2311C47.2055 48.2563 45.5402 48.2563 44.5147 47.2311L34.1291 36.8392C31.307 38.9061 27.8287 40.12 24.0633 40.12C14.6375 40.12 7 32.484 7 23.06C7 13.636 14.6375 6 24.0633 6C33.4892 6 41.1267 13.636 41.1267 23.06ZM24.0633 34.8708C25.6146 34.8708 27.1508 34.5653 28.584 33.9717C30.0172 33.3782 31.3195 32.5082 32.4164 31.4115C33.5134 30.3147 34.3835 29.0127 34.9772 27.5798C35.5709 26.1468 35.8764 24.611 35.8764 23.06C35.8764 21.509 35.5709 19.9732 34.9772 18.5402C34.3835 17.1073 33.5134 15.8053 32.4164 14.7085C31.3195 13.6118 30.0172 12.7418 28.584 12.1483C27.1508 11.5547 25.6146 11.2492 24.0633 11.2492C22.512 11.2492 20.9759 11.5547 19.5427 12.1483C18.1094 12.7418 16.8072 13.6118 15.7102 14.7085C14.6133 15.8053 13.7431 17.1073 13.1495 18.5402C12.5558 19.9732 12.2503 21.509 12.2503 23.06C12.2503 24.611 12.5558 26.1468 13.1495 27.5798C13.7431 29.0127 14.6133 30.3147 15.7102 31.4115C16.8072 32.5082 18.1094 33.3782 19.5427 33.9717C20.9759 34.5653 22.512 34.8708 24.0633 34.8708Z" fill="#222222"/>
</svg>
