<svg width="25" height="25" viewBox="0 0 25 25" fill="none" xmlns="http://www.w3.org/2000/svg">
<g clip-path="url(#clip0_63_7312)">
<rect width="24" height="24" transform="translate(0.5 0.5)" fill="white"/>
<path d="M11.972 24V22.5625H21.1797C21.4002 22.5625 21.6029 22.4705 21.7878 22.2865C21.9718 22.1015 22.0638 21.8989 22.0638 21.6784V3.32156C22.0638 3.10115 21.9718 2.89846 21.7878 2.7135C21.6029 2.5295 21.4002 2.4375 21.1797 2.4375H11.972V1H21.1783C21.8396 1 22.3916 1.22185 22.8344 1.66556C23.2781 2.10831 23.5 2.66031 23.5 3.32156V21.6784C23.5 22.3397 23.2786 22.8917 22.8358 23.3344C22.3921 23.7781 21.8396 24 21.1783 24H11.972ZM10.9513 17.5859L9.94065 16.5523L13.2759 13.2188H0.5V11.7812H13.2759L9.94065 8.44625L10.9498 7.41412L16.0375 12.5L10.9513 17.5859Z" fill="#222222"/>
</g>
<defs>
<clipPath id="clip0_63_7312">
<rect width="24" height="24" fill="white" transform="translate(0.5 0.5)"/>
</clipPath>
</defs>
</svg>
