<svg width="24" height="24" viewBox="0 0 24 24" fill="none" xmlns="http://www.w3.org/2000/svg">
<g clip-path="url(#clip0_730_2807)">
<path d="M12.0417 0.5V1.9375L2.82303 1.9375C2.60234 1.9375 2.39939 2.0295 2.2142 2.2135C2.02997 2.39846 1.93786 2.60115 1.93786 2.82156L1.93786 21.1784C1.93786 21.3989 2.02997 21.6015 2.2142 21.7865C2.39939 21.9705 2.60234 22.0625 2.82303 22.0625L12.0417 22.0625V23.5L2.82447 23.5C2.16239 23.5 1.6097 23.2781 1.1664 22.8344C0.722133 22.3917 0.5 21.8397 0.5 21.1784L0.5 2.82156C0.5 2.16031 0.721651 1.60831 1.16496 1.16556C1.60922 0.721853 2.16239 0.5 2.82447 0.5L12.0417 0.5ZM13.0636 6.91412L14.0755 7.94769L10.7363 11.2812L23.5 11.2812V12.7188L10.7363 12.7187L14.0755 16.0537L13.0651 17.0859L7.9714 12L13.0636 6.91412Z" fill="black"/>
</g>
<defs>
<clipPath id="clip0_730_2807">
<rect width="24" height="24" fill="white"/>
</clipPath>
</defs>
</svg>
