<svg width="24" height="24" viewBox="0 0 24 24" fill="none" xmlns="http://www.w3.org/2000/svg">
<g clip-path="url(#clip0_730_2808)">
<path d="M2.82156 23.5C2.16031 23.5 1.60831 23.2786 1.16556 22.8359C0.721854 22.3922 0.5 21.8397 0.5 21.1784V2.82156C0.5 2.16031 0.721854 1.60831 1.16556 1.16556C1.60831 0.721854 2.16031 0.5 2.82156 0.5H12.0273V1.9375H2.82156C2.60115 1.9375 2.39846 2.0295 2.2135 2.2135C2.0295 2.39846 1.9375 2.60115 1.9375 2.82156V21.1784C1.9375 21.3989 2.0295 21.6015 2.2135 21.7865C2.39846 21.9705 2.60115 22.0625 2.82156 22.0625H12.0273V23.5H2.82156ZM18.4141 17.0859L17.405 16.0523L20.7386 12.7188H7.9635V11.2812H20.7386L17.4036 7.94625L18.4141 6.91412L23.5 12L18.4141 17.0859Z" fill="black"/>
</g>
<defs>
<clipPath id="clip0_730_2808">
<rect width="24" height="24" fill="white"/>
</clipPath>
</defs>
</svg>
