<svg width="27" height="25" viewBox="0 0 27 25" fill="none" xmlns="http://www.w3.org/2000/svg">
<path d="M24.2246 8.06038C24.2417 8.28245 24.2417 8.50457 24.2417 8.72664C24.2417 15.5001 18.6739 23.3047 8.49746 23.3047C5.3623 23.3047 2.44988 22.4639 0 21.0046C0.445447 21.0521 0.873703 21.068 1.33629 21.068C3.92317 21.068 6.30455 20.259 8.20621 18.8789C5.77347 18.8313 3.73475 17.3561 3.03233 15.3256C3.375 15.3732 3.71762 15.4049 4.07742 15.4049C4.57423 15.4049 5.0711 15.3414 5.53363 15.2304C2.99811 14.7545 1.0964 12.6924 1.0964 10.2019V10.1385C1.83305 10.5192 2.68972 10.7571 3.59764 10.7888C2.10716 9.86873 1.13068 8.29832 1.13068 6.52166C1.13068 5.5699 1.40474 4.69744 1.88446 3.93601C4.60846 7.04514 8.70302 9.07556 13.2943 9.29768C13.2087 8.91697 13.1573 8.52043 13.1573 8.12385C13.1573 5.30022 15.6243 3.00012 18.6909 3.00012C20.2842 3.00012 21.7232 3.61877 22.7341 4.61814C23.9847 4.39607 25.1839 3.96775 26.2461 3.38083C25.8349 4.57058 24.9612 5.56995 23.8134 6.20442C24.927 6.09343 26.0063 5.80784 26.9999 5.4113C26.2462 6.42649 25.3039 7.33064 24.2246 8.06038Z" fill="#222222"/>
</svg>
