<svg width="24" height="24" viewBox="0 0 24 24" fill="none" xmlns="http://www.w3.org/2000/svg">
<path d="M22.9024 6.81639C22.6407 5.7078 21.8696 4.8347 20.8906 4.53841C19.116 4 12.0001 4 12.0001 4C12.0001 4 4.88427 4 3.10965 4.53841C2.13061 4.83475 1.35952 5.7078 1.09781 6.81639C0.622314 8.82578 0.622314 13.0182 0.622314 13.0182C0.622314 13.0182 0.622314 17.2106 1.09781 19.22C1.35952 20.3286 2.13061 21.1653 3.10965 21.4616C4.88427 22 12.0001 22 12.0001 22C12.0001 22 19.1159 22 20.8906 21.4616C21.8696 21.1653 22.6407 20.3286 22.9024 19.22C23.3779 17.2106 23.3779 13.0182 23.3779 13.0182C23.3779 13.0182 23.3779 8.82578 22.9024 6.81639ZM9.67282 16.8246V9.2118L15.6203 13.0183L9.67282 16.8246Z" fill="#222222"/>
</svg>
